<svg width="365" height="369" viewBox="0 0 365 369" fill="none" xmlns="http://www.w3.org/2000/svg">
<path d="M207.966 0.0138306C256.415 0.646334 306.183 16.188 337.16 53.333C367.175 89.3248 366.381 139.243 363.008 185.929C359.742 231.127 351.099 277.24 318.686 309.008C285.153 341.874 237.832 357.817 190.92 354.592C144.915 351.429 105.045 325.688 73.5005 292.153C41.3557 257.979 14.9322 216.197 16.7054 169.38C18.4929 122.187 47.2553 81.3726 82.6718 50.0106C117.637 19.0481 161.205 -0.596655 207.966 0.0138306Z" fill="#D4D4D8"/>
<path d="M194.616 10.0139C243.482 10.6518 293.679 26.3248 324.923 63.7837C355.197 100.08 354.397 150.419 350.994 197.5C347.7 243.08 338.983 289.583 306.29 321.619C272.468 354.763 224.739 370.841 177.422 367.588C131.021 364.399 90.8073 338.441 58.9909 304.622C26.5689 270.159 -0.0823326 228.024 1.70617 180.811C3.50904 133.219 32.5194 92.0603 68.2412 60.4332C103.508 29.209 147.451 9.3983 194.616 10.0139Z" stroke="#71717A" stroke-width="2" stroke-linecap="round" stroke-dasharray="12 12"/>
</svg>
